<?xml version="1.0" encoding="UTF-8"?>
<!-- Generated by Pixelmator Pro 3.7.1 -->
<svg width="729" height="796" viewBox="0 0 729 796" xmlns="http://www.w3.org/2000/svg">
    <g id="White">
        <g id="Main">
            <path id="Path" fill="#ffffff" stroke="none" d="M 319 795 C 295.699951 792.5 283 790.099976 269.5 785.599976 C 267.300049 784.799988 263 783.5 260 782.5 C 257 781.599976 252.099976 779.900024 249.300049 778.799988 C 244.199951 776.799988 244 776.599976 244 773 C 244 769.299988 243.900024 769.200012 238.300049 767.5 C 235.099976 766.5 230 764.400024 226.900024 762.799988 C 223.800049 761.299988 221 760 220.699951 760 C 220.400024 760 217.900024 758.700012 215.300049 757.200012 C 212.699951 755.700012 208.400024 753.599976 205.699951 752.599976 C 203.099976 751.599976 195.900024 747.799988 189.699951 744 C 183.5 740.299988 175.699951 735.799988 172.400024 734.099976 C 160 727.400024 150.300049 720.700012 140 711.5 C 137.5 709.299988 133 705.400024 130 702.799988 C 127 700.299988 121.800049 695.5 118.5 692.099976 C 111.099976 684.400024 107.199951 681.900024 111.900024 687.799988 C 113.699951 690.099976 115.599976 692.200012 116.099976 692.5 C 116.599976 692.900024 117 694.700012 117 696.599976 C 117 699.900024 116.900024 700 113.300049 700 C 111.199951 700 108.199951 699.200012 106.5 698.099976 C 99.699951 693.900024 87.400024 680.5 75.300049 664.299988 C 53.099976 634.400024 49.599976 629 39.400024 608 C 36.300049 601.700012 33.400024 595.799988 32.900024 595 C 31.900024 593.5 29.300049 587.900024 25.900024 580.299988 C 24.800049 578 24 573.799988 24 571.099976 L 24 566 L 27.300049 566 C 30.300049 566 30.900024 566.5 32.599976 570.299988 C 33.599976 572.599976 35.400024 575.900024 36.5 577.599976 C 37.599976 579.299988 39 581.599976 39.699951 582.599976 C 40.400024 583.700012 39.800049 581.900024 38.5 578.799988 C 34.800049 570.099976 25.099976 539.5 20 520.5 C 18.199951 513.900024 16.400024 507.400024 15.900024 506 C 14.800049 503 15.099976 505 18 521 C 19.099976 526.799988 20 533 20 534.799988 C 20 537.799988 19.800049 538 16.5 538 C 13.599976 538 12.900024 537.5 11.599976 534.799988 C 5 519.900024 0.099976 490.799988 -0.300049 464.599976 L -0.5 448.5 L 3.199951 448.200012 L 6.800049 447.900024 L 7.400024 454.700012 C 9 472.400024 13.800049 503.599976 14.699951 502.599976 C 15 502.299988 14.699951 499.299988 14.199951 495.799988 C 10.900024 476.400024 9.699951 459.5 9.599976 432.5 C 9.599976 410.299988 9.900024 402.599976 11.199951 395.5 C 12.199951 390.599976 14.099976 380.200012 15.400024 372.5 C 19.599976 349.099976 25.699951 320.900024 27.900024 314.299988 C 29 310.900024 30 307.5 30 306.900024 C 30 306.299988 32 300.400024 34.400024 293.900024 C 40.900024 276.699951 54.300049 251.5 65.400024 235.599976 C 74.199951 223.099976 75.699951 221.099976 80.5 215.5 C 83.300049 212.300049 86.900024 208.099976 88.5 206.099976 C 90.199951 204.199951 92.199951 201.800049 93 201 C 93.800049 200.099976 97.199951 196.199951 100.5 192.400024 C 107.699951 184.099976 121.900024 170 123.199951 170 C 123.699951 170 126.199951 168 128.800049 165.599976 C 134.400024 160.400024 152.699951 147.900024 162.5 142.599976 C 166.400024 140.5 170 138.400024 170.599976 137.900024 C 171.199951 137.400024 174.300049 135.599976 177.599976 133.900024 C 188.5 128.199951 196.5 123.800049 197.5 123 C 198.300049 122.400024 209.599976 117.400024 234.5 106.5 C 239.300049 104.400024 256.199951 99 258 99 C 258.900024 99 260 98.599976 260.5 98.099976 C 261.099976 97.599976 265.800049 96.699951 271 96 C 276.199951 95.400024 283 94.5 286 94 C 289 93.5 295 93.099976 299.300049 93.099976 L 307 93 L 307 96 C 307 99.599976 306.599976 99.5 323.5 97.5 C 330.800049 96.599976 344.599976 96 359 96 C 389.099976 96.099976 404 97.400024 425.099976 102.099976 C 437 104.699951 439.300049 104.400024 429 101.400024 C 409.099976 95.800049 386.800049 92.900024 363.300049 93 L 345 93.099976 L 345 89.599976 C 345 87.199951 345.5 86 346.800049 85.599976 C 351.400024 84.300049 373.400024 83.900024 390 84.900024 C 412.5 86.300049 426.900024 89.199951 438.300049 94.5 C 443.599976 97 444 97.400024 444 100.599976 C 444 103.800049 443.800049 104 440.800049 104 C 435.900024 104 438 105 447.599976 107 C 460.5 109.699951 489.699951 120.5 503.5 127.599976 C 525.5 139 532.099976 142.5 536 145.099976 C 538.5 146.699951 541.199951 148.300049 542 148.599976 C 542.800049 149 545 150.400024 546.800049 151.699951 C 550.5 154.5 550.900024 154.300049 557 147.599976 C 559.5 144.900024 565.199951 138.800049 569.599976 134.099976 C 574.099976 129.300049 580.199951 122.800049 583.099976 119.599976 C 607.300049 92.900024 673.199951 26.400024 683.900024 17.800049 C 691.699951 11.5 695.5 9.099976 704.900024 4.300049 C 711.900024 0.699951 714.300049 0 719 0 C 727.199951 0 728.400024 1.199951 728.800049 10.400024 C 729.199951 18.099976 726.599976 32 724.800049 32 C 724.400024 32 724 32.5 724 33.199951 C 724 35.199951 710 59.900024 702 72 C 688.5 92.400024 677.099976 108.900024 672.900024 114 C 671.199951 116.099976 660.699951 130.800049 654.199951 140 C 653.300049 141.300049 648.099976 148.300049 642.800049 155.5 C 637.5 162.599976 631.800049 170.300049 630.199951 172.5 C 628.599976 174.699951 625.199951 179.300049 622.699951 182.800049 C 620.099976 186.199951 618 189.400024 618 189.800049 C 618 190.199951 616.199951 192.5 614 194.900024 L 610.099976 199.300049 L 617.300049 207.300049 C 621.300049 211.699951 625.599976 216.5 626.900024 217.900024 C 630.199951 221.5 641.099976 238.400024 644.300049 244.800049 C 647.099976 250.400024 647.800049 256.599976 645.800049 257.199951 C 645 257.5 646.800049 261.099976 650.599976 267.099976 C 664.099976 288 674 307.799988 674.699951 315.299988 C 675.199951 320.099976 675 321 673.599976 321 C 671.5 321 671.5 321 675.300049 332 C 678.400024 340.700012 679.5 344.900024 683.599976 362.5 C 686.699951 376.200012 688.300049 388.099976 690.5 415 C 691.300049 425.299988 688.800049 455.099976 686.400024 463.299988 C 685.800049 465.299988 679.800049 465.700012 678.199951 463.799988 C 677.699951 463.099976 676.5 456.700012 675.5 449.5 C 674.5 442.400024 673.400024 435.799988 672.900024 434.900024 C 672.5 434 671.400024 427.5 670.5 420.400024 C 668.800049 407.200012 662.599976 378 658.900024 365.5 C 657.699951 361.700012 654.900024 353.799988 652.599976 348 C 649.199951 339.400024 648 337.400024 646.199951 337.200012 L 644 336.900024 L 646 342.200012 C 648.400024 348.5 648.699951 357 646.599976 357 C 645.599976 357 645 358.900024 644.5 363.5 L 643.800049 370 L 640 370 C 636.300049 370 636.199951 369.900024 633.099976 363 C 631.400024 359.099976 630 355.700012 630 355.400024 C 630 354.900024 627 348.400024 619.800049 333 C 617.599976 328.299988 614.099976 320.900024 612 316.5 C 608 307.900024 597.900024 293.200012 592.900024 288.400024 C 591.099976 286.800049 589.900024 286 590.199951 286.5 C 590.400024 287.099976 592.699951 291.800049 595.400024 297.099976 C 599.400024 305.200012 600.199951 307.900024 600.699951 314.400024 L 601.300049 322 L 597.800049 322 C 595.099976 322 593.900024 321.299988 592 318.799988 C 590.699951 317 589.199951 315.099976 588.800049 314.5 C 588.300049 314 584.900024 309.400024 581.199951 304.400024 C 574.900024 295.900024 569.800049 289.699951 559.099976 277.900024 C 556.699951 275.199951 554.5 273 554.099976 273 C 553.800049 273 551.300049 275.800049 548.5 279.300049 C 545.800049 282.699951 543.300049 285.699951 543 286 C 542.699951 286.300049 541.400024 287.800049 540.199951 289.400024 C 536.699951 294 520.5 311.200012 506.800049 325 C 498 333.900024 493.599976 339.099976 491.599976 343.099976 C 488.599976 349.299988 486.199951 351.900024 481.300049 354.400024 C 479.300049 355.400024 477.800049 357.200012 477 359.400024 C 476 362.700012 474.300049 364.700012 466.699951 371.799988 C 464.800049 373.599976 461.900024 376.900024 460.400024 379.299988 C 458.800049 381.599976 456.5 384.599976 455.300049 386 C 454 387.400024 453 388.900024 452.900024 389.5 C 452.900024 390 451.300049 392.5 449.5 395 C 447.599976 397.5 443.900024 402.599976 441.300049 406.299988 C 438.599976 410.099976 434.099976 416.299988 431.300049 420.099976 C 428.400024 423.900024 426 427.200012 426 427.5 C 426 427.799988 425.099976 429.099976 423.900024 430.299988 C 422.800049 431.5 414.599976 442.200012 405.699951 454 C 396.800049 465.799988 387.400024 477.700012 384.699951 480.5 C 382.099976 483.200012 379.800049 486.299988 379.599976 487.5 C 378.199951 494.799988 374.400024 509.299988 372.800049 513.5 C 368.599976 524.5 359.300049 541.400024 353.300049 549 C 342.199951 563 320.800049 578.799988 304.800049 584.599976 C 293.300049 588.799988 285.699951 590 269.400024 590 C 257.300049 590 251.099976 589.5 244.400024 588.099976 C 224.599976 583.799988 216.599976 579.599976 198.099976 563.799988 C 186.599976 554.099976 184.699951 551.200012 184.199951 543.400024 L 183.800049 536.900024 L 194.699951 537.099976 C 205.599976 537.299988 205.699951 537.299988 212.800049 533.5 C 224.300049 527.5 228.800049 521.900024 240.699951 499 C 248.199951 484.799988 258.300049 469.700012 265 462.900024 C 273.599976 454.200012 287.699951 445.700012 309 436.099976 C 315.400024 433.200012 317.099976 431.900024 320.5 427.200012 C 324 422.299988 348.400024 394.099976 351.400024 391.5 C 352 391 354.300049 388.299988 356.5 385.5 C 358.699951 382.799988 361.599976 379.400024 363 378 C 364.400024 376.599976 367 373.599976 368.900024 371.400024 C 370.699951 369.299988 374.400024 365.299988 376.900024 362.5 C 379.5 359.799988 385.599976 353 390.5 347.5 C 395.5 342 402.599976 334.200012 406.5 330.200012 C 410.300049 326.200012 414.400024 321 415.5 318.700012 C 416.699951 316.400024 419.5 313.200012 421.800049 311.5 C 424.300049 309.700012 427 306.400024 428.599976 303.299988 C 430 300.400024 434.099976 295.299988 437.800049 291.800049 C 441.699951 288.099976 448.300049 279.800049 453.5 272.099976 C 460.900024 261.199951 476.099976 240.400024 481.300049 234 C 490.199951 222.900024 490.300049 222.800049 488.900024 221.900024 C 485.400024 219.5 471.099976 211.300049 468 209.800049 C 466.099976 208.900024 461.099976 206.5 456.900024 204.599976 C 452.800049 202.599976 448.800049 201 448.199951 201 C 447.5 201 447 200.199951 447 199.099976 C 447 197.199951 438.400024 192.800049 428 189.5 C 425 188.5 421.599976 187.300049 420.5 186.900024 C 411.699951 183.099976 385.400024 178 374.800049 178 C 371.099976 178 363.599976 177.5 358.199951 176.900024 C 349.800049 176 345.599976 176.199951 330 178 C 313.400024 179.800049 293.199951 183.599976 294.300049 184.599976 C 294.5 184.800049 298 184.599976 302.099976 184 C 306.199951 183.5 311.900024 183 314.800049 183 L 320 183 L 320 186.400024 C 320 189.5 319.599976 189.900024 316.800049 190.5 C 315 190.900024 313.300049 191.599976 313 192 C 312.699951 192.400024 308.699951 193.5 304 194.400024 C 299.300049 195.300049 293 196.599976 290 197.199951 C 287 197.800049 284.099976 198.599976 283.5 199 C 283 199.400024 280.900024 200.099976 279 200.5 C 277.099976 200.900024 275.099976 201.599976 274.5 202 C 274 202.400024 271.900024 203.099976 270 203.5 C 268.099976 203.900024 266.099976 204.599976 265.5 204.900024 C 265 205.300049 262.300049 206.5 259.5 207.400024 C 250.599976 210.599976 222.800049 224.900024 219 228.199951 C 217.900024 229.199951 216.800049 230 216.5 230 C 216.199951 230 213 232.099976 209.300049 234.699951 C 205.5 237.199951 200.699951 240.599976 198.5 242.099976 C 196.300049 243.599976 192.900024 246.5 191.099976 248.400024 C 188.300049 251.300049 186.900024 252 183.800049 252 C 181.699951 252 180 252.400024 180 252.900024 C 180 253.400024 179.400024 254.5 178.699951 255.199951 C 178 255.900024 176.099976 258.300049 174.5 260.5 C 170.599976 265.900024 162.800049 274 161.5 274 C 160.900024 274 159.599976 275.199951 158.5 276.699951 C 157.400024 278.199951 154.800049 281.300049 152.800049 283.699951 C 148.699951 288.400024 144.199951 296 136 311.5 C 133.099976 317 130.400024 321.700012 130 322 C 128.699951 322.900024 120.400024 340.299988 118.5 346 C 117.5 349 116.400024 352 116 352.5 C 115.599976 353.099976 114 357.400024 112.5 362.200012 C 111 367.099976 109.5 371.200012 109 371.5 C 108.599976 371.799988 107.900024 373.700012 107.5 375.700012 C 107.199951 377.799988 106 382.400024 104.900024 385.900024 C 102.5 393.900024 102.400024 397 104.800049 397 C 106.400024 397 106.599976 399.200012 106.5 432.799988 C 106.5 472.099976 106.800049 475.200012 112.699951 495.5 C 114.599976 502.099976 118 513.799988 120.099976 521.5 C 122.300049 529.200012 125.599976 539.299988 127.5 544.099976 C 129.400024 548.900024 131 553.200012 131 553.599976 C 131 554.099976 132.099976 556.200012 133.5 558.200012 C 136.699951 562.900024 137 569 134 569 C 132.900024 569 132 569.200012 132 569.5 C 132 569.700012 133.599976 572.5 135.599976 575.5 C 143.5 588 162 607 178.300049 619.5 C 188.099976 627 198.599976 635.099976 207 641.599976 C 210.599976 644.299988 217.099976 648.700012 221.5 651.299988 C 225.900024 653.900024 230.199951 656.5 231 657 C 232.699951 658.200012 257.099976 670.099976 261.300049 671.799988 C 268.300049 674.700012 285.199951 680 292 681.299988 C 325.199951 688 331 688.900024 345.300049 689.700012 L 358 690.299988 L 358 694.099976 C 358 697.599976 357.800049 697.900024 354.800049 698.400024 C 350.5 699 326.599976 701 321.5 701.099976 C 318.199951 701.200012 318.900024 701.5 325 702.599976 C 333.599976 704.200012 354.099976 704.5 364.5 703.099976 C 375.199951 701.700012 400.199951 697.099976 402.5 696.099976 C 403.599976 695.599976 408.599976 694 413.5 692.5 C 435.599976 686 446.599976 681.200012 459.199951 672.799988 C 462.300049 670.700012 465.099976 669 465.400024 669 C 467.900024 669 486 653 502.400024 636.599976 C 524.900024 613.799988 533.900024 603.900024 544.199951 590.299988 L 551.400024 580.900024 L 549.599976 576.200012 C 545.300049 565.099976 543.900024 557.400024 543.300049 543.5 C 542.800049 529.400024 543.400024 523.599976 546.400024 512.599976 C 551.400024 494.400024 568.599976 478.5 591.599976 470.599976 C 597 468.700012 604.199951 466.900024 607.599976 466.5 C 614.300049 465.799988 632.900024 467.5 634.400024 469 C 635 469.599976 636.300049 470 637.400024 470 C 644.099976 470 660.599976 482.400024 668.5 493.299988 C 677 505 680.199951 517 680.199951 538.200012 C 680.300049 561.799988 678.199951 571.599976 668.400024 592.799988 C 666.5 596.900024 665 600.5 665 601 C 665 602.900024 645.099976 636 642.300049 638.799988 C 641.599976 639.599976 639.300049 642.799988 637.300049 645.900024 C 632 654.200012 617.900024 672.799988 612.900024 678.099976 C 608.900024 682.200012 602.800049 687.900024 592.900024 696.5 C 579.199951 708.5 563 719.799988 534.5 737.400024 C 523.199951 744.400024 520 746.900024 519.800049 748.799988 C 519.599976 750.599976 517.5 752.200012 510.5 756.099976 C 499.199951 762.400024 483.800049 769.799988 473.5 774 C 462.800049 778.299988 424.5 788.799988 414.5 790.200012 C 410.099976 790.799988 394.900024 791.400024 380.699951 791.5 C 358 791.799988 354.5 792 351.199951 793.599976 C 347 795.700012 331.900024 796.400024 319 795 Z M 308 699 C 304.599976 697.900024 302 697.900024 304.5 699 C 305.599976 699.5 307.400024 699.799988 308.5 699.799988 C 310.099976 699.799988 310 699.599976 308 699 Z M 255.699951 546.5 C 259.400024 545.099976 262.599976 543.700012 262.900024 543.400024 C 263.300049 543.099976 260.199951 543.200012 256.099976 543.599976 L 248.800049 544.299988 L 249.099976 539.099976 C 249.300049 536.299988 249.099976 534 248.599976 534 C 248.199951 534 248 531.099976 248.199951 527.599976 L 248.599976 521.200012 L 245.5 525.299988 C 243.900024 527.599976 239.800049 532.299988 236.599976 535.700012 C 231.599976 541 231 542 232.800049 542 C 234 542 235 542.599976 235 543.400024 C 235 544.5 236.400024 544.700012 241.5 544.200012 C 248 543.700012 248 543.700012 248 546.400024 C 248 547.799988 248.199951 549 248.5 549 C 248.699951 549 252 547.900024 255.699951 546.5 Z M 369.199951 405.200012 C 372 403.400024 378.300049 396.799988 387.800049 386 C 390.900024 382.5 398.699951 374.200012 405.199951 367.5 C 411.599976 360.900024 418.199951 353.799988 419.800049 351.700012 C 421.400024 349.700012 423.800049 347.200012 425.099976 346.200012 C 426.300049 345.099976 426.900024 344.099976 426.400024 343.799988 C 425.900024 343.5 411.199951 357.599976 393.699951 375.099976 C 368.699951 400.099976 362.300049 407 364.199951 407 C 365.400024 407 367.699951 406.200012 369.199951 405.200012 Z M 451.099976 313.799988 C 448.699951 311.700012 446.300049 310.299988 445.699951 310.700012 C 445.099976 311.099976 446.400024 312.900024 449 315.099976 C 451.400024 317.200012 453.800049 318.599976 454.400024 318.299988 C 454.900024 317.900024 453.400024 315.900024 451.099976 313.799988 Z M 477.400024 277.5 C 479.5 275 480.699951 273 480.199951 273 C 479.699951 273 477.900024 275 476.099976 277.5 C 474.300049 280 473.099976 282 473.300049 282 C 473.599976 282 475.400024 280 477.400024 277.5 Z M 490.400024 261 C 494.599976 255.800049 498.900024 250.599976 499.800049 249.5 C 500.800049 248.400024 503.400024 245.300049 505.5 242.5 C 523.199951 220.300049 542.099976 198 543.199951 198 C 543.599976 198 544 197.5 544 196.800049 C 544 196.199951 544.800049 194.699951 545.699951 193.599976 C 546.699951 192.400024 545.5 193.300049 543.099976 195.5 C 540.800049 197.699951 537 201.800049 534.699951 204.699951 C 528.599976 212.300049 514.599976 229.099976 511.900024 232.099976 C 510.599976 233.5 508.199951 236.400024 506.5 238.599976 C 504.900024 240.699951 502.300049 243.800049 500.900024 245.5 C 497.599976 249.300049 482.699951 269 481.599976 271 C 480.099976 273.599976 482.5 270.900024 490.400024 261 Z M 554.099976 183.800049 C 557 180.300049 558.400024 178.400024 557.099976 179.5 C 554.300049 181.900024 546 191.699951 547.599976 190.699951 C 548.300049 190.300049 551.199951 187.199951 554.099976 183.800049 Z"/>
            <path id="path1" fill="#000000" stroke="none" d="M 170.5 750.299988 C 166 747.599976 157.800049 742.099976 152.199951 738 C 142.400024 730.799988 142 730.400024 142 726.799988 C 142 723.200012 142.099976 723 145.400024 723 C 148.099976 723 151.300049 724.799988 161 732 C 167.800049 737 175.900024 742.700012 179.199951 744.700012 C 184.400024 747.900024 185 748.599976 185 751.599976 C 185 754.799988 184.800049 755 181.699951 755 C 179.699951 755 175.599976 753.299988 170.5 750.299988 Z"/>
            <path id="path2" fill="#000000" stroke="none" d="M 476 115 C 474.099976 114 471.300049 112.699951 469.800049 112.099976 C 467.5 111.199951 467 110.400024 467 107.5 C 467 104 467 104 471.599976 104 C 474.800049 104 477.699951 104.900024 481.099976 106.800049 C 485.599976 109.300049 486 109.800049 486 113.300049 C 486 116.800049 485.800049 117 482.800049 117 C 481 116.900024 477.900024 116.099976 476 115 Z"/>
        </g>
        <g id="Highlights">
            <path id="path3" fill="#929292" stroke="none" d="M 269.5 717 C 254.300049 712.5 237.099976 704.599976 224.699951 696.400024 C 222.5 695 221.099976 693.599976 221.400024 693.299988 C 221.699951 693 222.5 693.200012 223.199951 693.700012 C 228.800049 698.200012 260.5 711.700012 279.300049 717.599976 C 283.5 719 287 720.299988 287 720.5 C 287 721.700012 281.5 720.599976 269.5 717 Z"/>
            <path id="path4" fill="#929292" stroke="none" d="M 230 676.5 C 225.199951 673.799988 220.900024 670 222.699951 670 C 224.5 670 235.300049 676.400024 235.800049 677.799988 C 236.300049 679.5 235.099976 679.299988 230 676.5 Z"/>
            <path id="path5" fill="#929292" stroke="none" d="M 235 554 C 235 553.599976 236 553 237.300049 552.599976 C 238.5 552.299988 240.900024 550.900024 242.5 549.5 L 245.5 546.900024 L 242.5 547.5 C 240.900024 547.799988 236.599976 548.299988 233 548.599976 L 226.5 549.099976 L 229.5 547.400024 C 233.5 545.099976 231.300049 544.5 224.199951 545.900024 C 218.900024 546.900024 214.400024 546.799988 213.199951 545.5 C 212.900024 545.200012 213.599976 545 214.699951 545 C 218 545 226.199951 540.200012 231.300049 535.200012 C 236.800049 529.900024 241.5 523.900024 251.400024 509.700012 C 257.900024 500.400024 260.300049 498 261.699951 499.400024 C 262.5 500.200012 258.300049 511.5 254.900024 517.5 C 253.400024 520.299988 251.800049 524.400024 251.400024 526.799988 C 250.699951 531 250.800049 531 253.900024 531 C 257.599976 531 257.699951 531.400024 254.5 535.200012 C 251 539.400024 251.199951 541.099976 255.300049 540.400024 C 264.099976 539 276.400024 534.799988 284.800049 530.299988 C 290.800049 527.099976 292.900024 527 289.300049 530 C 284.599976 534 275.099976 540.900024 272 542.599976 C 270.099976 543.599976 267.800049 545 267 545.700012 C 262.5 549.299988 235 556.400024 235 554 Z"/>
            <path id="path6" fill="#929292" stroke="none" d="M 335.300049 436.5 C 333.599976 434.700012 333.599976 430.299988 335.300049 429.299988 C 335.900024 428.900024 339.400024 425.099976 342.900024 421 C 346.400024 416.900024 362.900024 400 379.400024 383.5 C 396 367 412.800049 350 416.900024 345.700012 C 420.900024 341.5 424.5 338 424.800049 338 C 425.800049 338 432 343.099976 432 343.900024 C 432 344.400024 430.5 346.299988 428.800049 348.099976 C 427 350 424.300049 353.099976 422.699951 355 C 421.099976 356.900024 414.599976 363.900024 408.199951 370.5 C 401.699951 377.200012 393.900024 385.5 390.800049 389 C 381.400024 399.700012 374.599976 406.599976 372 408.299988 C 370.599976 409.099976 367.400024 410.099976 364.800049 410.400024 C 362.199951 410.799988 359 412 357.5 413.200012 C 355.199951 415 343.5 430 339.900024 435.799988 C 338.300049 438.299988 337 438.5 335.300049 436.5 Z"/>
            <path id="path7" fill="#929292" stroke="none" d="M 437 332.900024 C 430.800049 330.099976 426.699951 325.5 428 322.900024 C 428.599976 321.900024 429.900024 321 430.800049 321 C 433.199951 321 440.300049 325.700012 446 330.900024 L 450.5 335 L 447.099976 333.700012 C 444.400024 332.799988 443.599976 332.799988 443.300049 333.799988 C 442.699951 335.299988 442.5 335.299988 437 332.900024 Z"/>
            <path id="path8" fill="#929292" stroke="none" d="M 446.699951 318.700012 C 443.5 315.900024 441 312.799988 441 312 C 441 309.299988 444 306 446.300049 306 C 448.5 306 466 320.200012 466 321.900024 C 466 322.400024 464.199951 322.200012 462 321.700012 C 458.699951 320.799988 457.800049 320.900024 456.199951 322.299988 C 455.199951 323.200012 453.900024 324 453.400024 324 C 452.900024 324 449.900024 321.599976 446.699951 318.700012 Z"/>
            <path id="path9" fill="#929292" stroke="none" d="M 459.199951 301.400024 C 458 300.599976 457 299.299988 457 298.700012 C 457 298 459.300049 294.400024 462 290.5 C 464.800049 286.699951 468.5 281.300049 470.400024 278.5 C 472.199951 275.800049 474.699951 272.400024 475.900024 271 C 477.099976 269.599976 481.900024 263.300049 486.699951 257 C 491.400024 250.699951 496.5 244.099976 497.900024 242.5 C 499.300049 240.800049 501.900024 237.699951 503.5 235.599976 C 505.199951 233.400024 507.599976 230.5 508.900024 229.099976 C 511 226.699951 521 214.800049 531.5 202 C 533.699951 199.400024 538.199951 194.099976 541.5 190.5 C 544.800049 186.800049 553.800049 176.699951 561.400024 168.099976 C 590.699951 135.199951 604.300049 120.800049 642.400024 82.5 C 666.699951 58.099976 671.300049 54.699951 652.5 75 C 649.199951 78.599976 642.699951 86.199951 638 91.900024 C 633.300049 97.599976 627.199951 104.800049 624.400024 107.900024 C 621.5 111 616.400024 116.900024 612.900024 121.099976 C 609.400024 125.300049 600.699951 135.400024 593.5 143.699951 C 586.400024 152 579.800049 159.699951 579 160.800049 C 577.400024 162.900024 560.800049 182.599976 552.300049 192.400024 C 549.400024 195.800049 547 199.099976 547 199.699951 C 547 200.400024 546.599976 201 546.199951 201 C 545.099976 201 526.199951 223.300049 508.5 245.5 C 506.400024 248.300049 503.800049 251.400024 502.800049 252.5 C 499.300049 256.400024 471.400024 291.800049 467.5 297.299988 C 465.300049 300.400024 463 302.900024 462.5 303 C 461.900024 303 460.400024 302.299988 459.199951 301.400024 Z"/>
            <path id="path10" fill="#929292" stroke="none" d="M 64.5 277.800049 C 65.800049 273.599976 76 254.800049 80.800049 247.800049 C 83.400024 243.900024 86 240.099976 86.5 239.199951 C 87.400024 237.699951 94 229.199951 103.300049 217.5 C 106.800049 213.199951 130.300049 189.400024 133.5 187 C 134.599976 186.199951 141.599976 180.800049 149 175.099976 C 165.699951 162.099976 191 145 200.300049 140.300049 C 207.800049 136.599976 216 133.699951 216 134.900024 C 216 135.300049 214.099976 136.099976 211.800049 136.699951 C 209.400024 137.400024 204.599976 139.900024 201 142.300049 C 197.400024 144.699951 189.800049 149.800049 184 153.699951 C 178.199951 157.5 171.599976 162.199951 169.300049 164.099976 C 167 166 163.199951 168.900024 160.800049 170.699951 C 158.400024 172.5 155.099976 175.199951 153.400024 176.699951 C 151.699951 178.199951 148.199951 181.300049 145.5 183.5 C 123.400024 201.699951 103.199951 223.400024 87.5 246 C 86.400024 247.599976 81.300049 254.800049 76.199951 262 C 71.099976 269.300049 66.5 276.300049 66 277.599976 C 64.800049 280.599976 63.599976 280.800049 64.5 277.800049 Z"/>
            <path id="path11" fill="#929292" stroke="none" d="M 402 163.900024 C 397.400024 162.800049 389.699951 161.599976 385 161.099976 C 378.199951 160.400024 377.599976 160.199951 381.599976 160.099976 C 390 159.900024 406.5 161.900024 412.699951 163.900024 L 418.5 165.800049 L 414.5 165.800049 C 412.300049 165.800049 406.699951 164.900024 402 163.900024 Z"/>
            <path id="path12" fill="#929292" stroke="none" d="M 237 125.5 C 237 123.800049 256.599976 117.599976 257.5 119 C 258.199951 120.199951 256.900024 120.900024 248.199951 123.599976 C 240.900024 125.900024 237 126.5 237 125.5 Z"/>
        </g>
    </g>
</svg>
